<svg xmlns="http://www.w3.org/2000/svg" width="624" height="4.8in" viewBox="0 0 470.8 343"><path fill="#9e9d9e" d="M87.6 80.3a28.5 28.5 0 1 1 28.5-28.5 28.6 28.6 0 0 1-28.5 28.5zm0-47a18.5 18.5 0 1 0 18.5 18.5 18.5 18.5 0 0 0-18.5-18.6zm67.2 47a28.5 28.5 0 1 1 28.5-28.5 28.6 28.6 0 0 1-28.5 28.5zm0-47a18.5 18.5 0 1 0 18.5 18.5 18.5 18.5 0 0 0-18.5-18.6zm66.3 47a28.5 28.5 0 1 1 28.5-28.5 28.6 28.6 0 0 1-28.5 28.5zm0-47a18.5 18.5 0 1 0 18.5 18.5 18.5 18.5 0 0 0-18.5-18.6zm66.3 47a28.5 28.5 0 1 1 28.5-28.5 28.6 28.6 0 0 1-28.5 28.5zm0-47a18.5 18.5 0 1 0 18.5 18.5 18.5 18.5 0 0 0-18.5-18.6zm66.3 47a28.5 28.5 0 1 1 28.5-28.5 28.6 28.6 0 0 1-28.5 28.5zm0-47a18.5 18.5 0 1 0 18.5 18.5 18.5 18.5 0 0 0-18.5-18.6zm66.3 47a28.5 28.5 0 1 1 28.5-28.5A28.6 28.6 0 0 1 420 80.3zm0-47a18.5 18.5 0 1 0 18.5 18.5A18.5 18.5 0 0 0 420 33.2zM50.8 141.9a28.5 28.5 0 1 1 28.5-28.5 28.6 28.6 0 0 1-28.5 28.5zm0-47a18.5 18.5 0 1 0 18.5 18.5 18.5 18.5 0 0 0-18.5-18.6zm67.2 47a28.5 28.5 0 1 1 28.5-28.5 28.6 28.6 0 0 1-28.5 28.5zm0-47a18.5 18.5 0 1 0 18.5 18.5A18.5 18.5 0 0 0 118 94.8zm66.3 47a28.5 28.5 0 1 1 28.5-28.5 28.6 28.6 0 0 1-28.5 28.5zm0-47a18.5 18.5 0 1 0 18.5 18.5 18.5 18.5 0 0 0-18.5-18.6zm66.3 47a28.5 28.5 0 1 1 28.5-28.5 28.6 28.6 0 0 1-28.5 28.5zm0-47a18.5 18.5 0 1 0 18.5 18.5 18.5 18.5 0 0 0-18.5-18.6zm66.3 47a28.5 28.5 0 1 1 28.5-28.5 28.6 28.6 0 0 1-28.5 28.5zm0-47a18.5 18.5 0 1 0 18.5 18.5 18.5 18.5 0 0 0-18.5-18.6zm66.2 47a28.5 28.5 0 1 1 28.5-28.5 28.6 28.6 0 0 1-28.5 28.5zm0-47a18.5 18.5 0 1 0 18.5 18.5 18.5 18.5 0 0 0-18.5-18.6zM87.6 203.5a28.5 28.5 0 1 1 28.6-28.5 28.6 28.6 0 0 1-28.6 28.5zm0-47a18.5 18.5 0 1 0 18.6 18.5 18.5 18.5 0 0 0-18.6-18.5zm-65.3 47a28.6 28.6 0 0 1-21-9.3 5 5 0 0 1-1.3-3.3v-31.8a5 5 0 0 1 1.3-3.4 28.5 28.5 0 1 1 21 47.8zM10 188.8a18.3 18.3 0 0 0 12.3 4.7 18.5 18.5 0 0 0 0-37 18.3 18.3 0 0 0-12.3 4.7zM22.3 80.3a28.6 28.6 0 0 1-21-9.3A5 5 0 0 1 0 67.7V35.9a5 5 0 0 1 1.3-3.4 28.5 28.5 0 1 1 21 47.8zM10 65.6a18.3 18.3 0 0 0 12.3 4.7 18.5 18.5 0 0 0 0-37A18.3 18.3 0 0 0 10 37.9zm438.4 76.3a28.5 28.5 0 1 1 21-47.8 5 5 0 0 1 1.3 3.4v31.8a5 5 0 0 1-1.3 3.4 28.6 28.6 0 0 1-21 9.2zm0-47a18.5 18.5 0 0 0 0 37 18.3 18.3 0 0 0 12.3-4.7V99.5a18.3 18.3 0 0 0-12.3-4.7zm0 170.2a28.5 28.5 0 1 1 21-47.8 5 5 0 0 1 1.3 3.4v31.8a5 5 0 0 1-1.3 3.4 28.6 28.6 0 0 1-21 9.2zm0-47a18.5 18.5 0 0 0 0 37 18.3 18.3 0 0 0 12.3-4.7v-27.6a18.3 18.3 0 0 0-12.3-4.7zM22.3 326.7a28.6 28.6 0 0 1-21-9.3 5 5 0 0 1-1.3-3.3v-31.8a5 5 0 0 1 1.3-3.4 28.5 28.5 0 1 1 21 47.8zM10 312a18.3 18.3 0 0 0 12.3 4.7 18.5 18.5 0 0 0 0-37.1 18.3 18.3 0 0 0-12.3 4.8zm144.8-108.5a28.5 28.5 0 1 1 28.6-28.5 28.6 28.6 0 0 1-28.6 28.5zm0-47a18.5 18.5 0 1 0 18.6 18.5 18.5 18.5 0 0 0-18.6-18.5zm66.3 47a28.5 28.5 0 1 1 28.5-28.5 28.6 28.6 0 0 1-28.5 28.5zm0-47a18.5 18.5 0 1 0 18.5 18.5 18.5 18.5 0 0 0-18.5-18.5zm66.3 47a28.5 28.5 0 1 1 28.5-28.5 28.6 28.6 0 0 1-28.5 28.5zm0-47a18.5 18.5 0 1 0 18.5 18.5 18.5 18.5 0 0 0-18.5-18.5zm66.3 47a28.5 28.5 0 1 1 28.5-28.5 28.6 28.6 0 0 1-28.5 28.5zm0-47a18.5 18.5 0 1 0 18.5 18.5 18.5 18.5 0 0 0-18.5-18.5zm66.3 47a28.5 28.5 0 1 1 28.5-28.5 28.6 28.6 0 0 1-28.5 28.5zm0-47a18.5 18.5 0 1 0 18.5 18.5 18.5 18.5 0 0 0-18.5-18.5zM87.6 326.7a28.5 28.5 0 1 1 28.5-28.5 28.6 28.6 0 0 1-28.5 28.5zm0-47a18.5 18.5 0 1 0 18.5 18.5 18.5 18.5 0 0 0-18.5-18.5zm67.2 47a28.5 28.5 0 1 1 28.5-28.5 28.6 28.6 0 0 1-28.5 28.5zm0-47a18.5 18.5 0 1 0 18.5 18.5 18.5 18.5 0 0 0-18.5-18.5zm66.3 47a28.5 28.5 0 1 1 28.5-28.5 28.6 28.6 0 0 1-28.5 28.5zm0-47a18.5 18.5 0 1 0 18.5 18.5 18.5 18.5 0 0 0-18.5-18.5zm66.3 47a28.5 28.5 0 1 1 28.5-28.5 28.6 28.6 0 0 1-28.5 28.5zm0-47a18.5 18.5 0 1 0 18.5 18.5 18.5 18.5 0 0 0-18.5-18.5zm66.3 47a28.5 28.5 0 1 1 28.5-28.5 28.6 28.6 0 0 1-28.5 28.5zm0-47a18.5 18.5 0 1 0 18.5 18.5 18.5 18.5 0 0 0-18.5-18.5zm66.3 47a28.5 28.5 0 1 1 28.5-28.5 28.6 28.6 0 0 1-28.5 28.5zm0-47a18.5 18.5 0 1 0 18.5 18.5 18.5 18.5 0 0 0-18.5-18.5zM50.8 265.1a28.5 28.5 0 1 1 28.5-28.5 28.6 28.6 0 0 1-28.5 28.5zm0-47a18.5 18.5 0 1 0 18.5 18.5 18.5 18.5 0 0 0-18.5-18.5zm67.2 47a28.5 28.5 0 1 1 28.5-28.5 28.6 28.6 0 0 1-28.5 28.5zm0-47a18.5 18.5 0 1 0 18.5 18.5 18.5 18.5 0 0 0-18.5-18.5zm66.3 47a28.5 28.5 0 1 1 28.5-28.5 28.6 28.6 0 0 1-28.5 28.5zm0-47a18.5 18.5 0 1 0 18.5 18.5 18.5 18.5 0 0 0-18.5-18.5zm66.3 47a28.5 28.5 0 1 1 28.5-28.5 28.6 28.6 0 0 1-28.5 28.5zm0-47a18.5 18.5 0 1 0 18.5 18.5 18.5 18.5 0 0 0-18.5-18.5zm66.3 47a28.5 28.5 0 1 1 28.5-28.5 28.6 28.6 0 0 1-28.5 28.5zm0-47a18.5 18.5 0 1 0 18.5 18.5 18.5 18.5 0 0 0-18.5-18.5zm66.2 47a28.5 28.5 0 1 1 28.5-28.5 28.6 28.6 0 0 1-28.5 28.5zm0-47a18.5 18.5 0 1 0 18.5 18.5 18.5 18.5 0 0 0-18.5-18.5z"/><path fill="#515352" d="M453.6 343H17.2C7.7 343 0 335.6 0 326.4V16.6C0 7.4 7.7 0 17.2 0h436.4c9.5 0 17.2 7.4 17.2 16.6v309.8c0 9.2-7.7 16.6-17.2 16.6zM17.2 10c-4 0-7.2 3-7.2 6.6v309.8c0 3.6 3.2 6.6 7.2 6.6h436.4c4 0 7.2-3 7.2-6.6V16.6c0-3.6-3.2-6.6-7.2-6.6z"/></svg>