<svg xmlns="http://www.w3.org/2000/svg" width="7.2in" height="528" viewBox="0 0 519 395"><circle cx="118.5" cy="156.5" r="23.5" fill="none" stroke="#9e9d9e" stroke-linecap="round" stroke-linejoin="round" stroke-width="10"/><circle cx="185.7" cy="156.5" r="23.5" fill="none" stroke="#9e9d9e" stroke-linecap="round" stroke-linejoin="round" stroke-width="10"/><circle cx="252" cy="156.5" r="23.5" fill="none" stroke="#9e9d9e" stroke-linecap="round" stroke-linejoin="round" stroke-width="10"/><circle cx="318.3" cy="156.5" r="23.5" fill="none" stroke="#9e9d9e" stroke-linecap="round" stroke-linejoin="round" stroke-width="10"/><circle cx="384.6" cy="156.5" r="23.5" fill="none" stroke="#9e9d9e" stroke-linecap="round" stroke-linejoin="round" stroke-width="10"/><circle cx="450.8" cy="156.5" r="23.5" fill="none" stroke="#9e9d9e" stroke-linecap="round" stroke-linejoin="round" stroke-width="10"/><circle cx="118.5" cy="348.6" r="23.5" fill="none" stroke="#9e9d9e" stroke-linecap="round" stroke-linejoin="round" stroke-width="10"/><circle cx="185.7" cy="348.6" r="23.5" fill="none" stroke="#9e9d9e" stroke-linecap="round" stroke-linejoin="round" stroke-width="10"/><circle cx="252" cy="348.6" r="23.5" fill="none" stroke="#9e9d9e" stroke-linecap="round" stroke-linejoin="round" stroke-width="10"/><circle cx="318.3" cy="348.6" r="23.5" fill="none" stroke="#9e9d9e" stroke-linecap="round" stroke-linejoin="round" stroke-width="10"/><circle cx="384.6" cy="348.6" r="23.5" fill="none" stroke="#9e9d9e" stroke-linecap="round" stroke-linejoin="round" stroke-width="10"/><circle cx="450.8" cy="348.6" r="23.5" fill="none" stroke="#9e9d9e" stroke-linecap="round" stroke-linejoin="round" stroke-width="10"/><ellipse cx="35" cy="156.5" fill="none" stroke="#515352" stroke-linecap="round" stroke-linejoin="round" stroke-width="10.98" rx="29.6" ry="151"/><path fill="none" stroke="#515352" stroke-linecap="round" stroke-linejoin="round" stroke-width="10.98" d="M35 5.5h431.3s58.3 162.5 0 302H35s56 43 50.9 81.9h427.6s-25.6-66.9-47.2-81.9"/><ellipse cx="97.3" cy="39.8" fill="none" stroke="#9e9d9e" stroke-linecap="round" stroke-linejoin="round" stroke-width="8.86" rx="23.5" ry="18.5"/><ellipse cx="164.5" cy="39.8" fill="none" stroke="#9e9d9e" stroke-linecap="round" stroke-linejoin="round" stroke-width="8.86" rx="23.5" ry="18.5"/><ellipse cx="230.8" cy="39.8" fill="none" stroke="#9e9d9e" stroke-linecap="round" stroke-linejoin="round" stroke-width="8.86" rx="23.5" ry="18.5"/><ellipse cx="297.1" cy="39.8" fill="none" stroke="#9e9d9e" stroke-linecap="round" stroke-linejoin="round" stroke-width="8.86" rx="23.5" ry="18.5"/><ellipse cx="363.3" cy="39.8" fill="none" stroke="#9e9d9e" stroke-linecap="round" stroke-linejoin="round" stroke-width="8.86" rx="23.5" ry="18.5"/><ellipse cx="429.6" cy="39.8" fill="none" stroke="#9e9d9e" stroke-linecap="round" stroke-linejoin="round" stroke-width="8.86" rx="23.5" ry="18.5"/><ellipse cx="98.2" cy="273" fill="none" stroke="#9e9d9e" stroke-linecap="round" stroke-linejoin="round" stroke-width="8.86" rx="23.5" ry="18.5"/><ellipse cx="165.4" cy="273" fill="none" stroke="#9e9d9e" stroke-linecap="round" stroke-linejoin="round" stroke-width="8.86" rx="23.5" ry="18.5"/><ellipse cx="231.7" cy="273" fill="none" stroke="#9e9d9e" stroke-linecap="round" stroke-linejoin="round" stroke-width="8.86" rx="23.5" ry="18.5"/><ellipse cx="298" cy="273" fill="none" stroke="#9e9d9e" stroke-linecap="round" stroke-linejoin="round" stroke-width="8.86" rx="23.5" ry="18.5"/><ellipse cx="364.3" cy="273" fill="none" stroke="#9e9d9e" stroke-linecap="round" stroke-linejoin="round" stroke-width="8.86" rx="23.5" ry="18.5"/><ellipse cx="430.6" cy="273" fill="none" stroke="#9e9d9e" stroke-linecap="round" stroke-linejoin="round" stroke-width="8.86" rx="23.5" ry="18.5"/><ellipse cx="112.9" cy="217.3" fill="none" stroke="#9e9d9e" stroke-linecap="round" stroke-linejoin="round" stroke-width="9.73" rx="23.5" ry="22.3"/><ellipse cx="180.1" cy="217.3" fill="none" stroke="#9e9d9e" stroke-linecap="round" stroke-linejoin="round" stroke-width="9.73" rx="23.5" ry="22.3"/><ellipse cx="246.4" cy="217.3" fill="none" stroke="#9e9d9e" stroke-linecap="round" stroke-linejoin="round" stroke-width="9.73" rx="23.5" ry="22.3"/><ellipse cx="312.6" cy="217.3" fill="none" stroke="#9e9d9e" stroke-linecap="round" stroke-linejoin="round" stroke-width="9.73" rx="23.5" ry="22.3"/><ellipse cx="378.9" cy="217.3" fill="none" stroke="#9e9d9e" stroke-linecap="round" stroke-linejoin="round" stroke-width="9.73" rx="23.5" ry="22.3"/><ellipse cx="445.2" cy="217.3" fill="none" stroke="#9e9d9e" stroke-linecap="round" stroke-linejoin="round" stroke-width="9.73" rx="23.5" ry="22.3"/><ellipse cx="111.2" cy="93.6" fill="none" stroke="#9e9d9e" stroke-linecap="round" stroke-linejoin="round" stroke-width="9.61" rx="23.5" ry="21.7"/><ellipse cx="178.4" cy="93.6" fill="none" stroke="#9e9d9e" stroke-linecap="round" stroke-linejoin="round" stroke-width="9.61" rx="23.5" ry="21.7"/><ellipse cx="244.7" cy="93.6" fill="none" stroke="#9e9d9e" stroke-linecap="round" stroke-linejoin="round" stroke-width="9.61" rx="23.5" ry="21.7"/><ellipse cx="311" cy="93.6" fill="none" stroke="#9e9d9e" stroke-linecap="round" stroke-linejoin="round" stroke-width="9.61" rx="23.5" ry="21.7"/><ellipse cx="377.3" cy="93.6" fill="none" stroke="#9e9d9e" stroke-linecap="round" stroke-linejoin="round" stroke-width="9.61" rx="23.5" ry="21.7"/><ellipse cx="443.5" cy="93.6" fill="none" stroke="#9e9d9e" stroke-linecap="round" stroke-linejoin="round" stroke-width="9.61" rx="23.5" ry="21.7"/><path fill="#515352" d="M54.3 32a13 13 0 0 0-14.9-1.6c-5.5 2.8-8.1 8.4-9 14.3-1.2 7.6-1.1 15.5-1.5 23.2l-1.2 24.8c-1.7 33.7-3.3 67.5-2 101.2.6 15.2.6 31.7 4.9 46.4 1.5 5.1 4 13.9 9.9 15.6s11.5-4 14.6-8.3c7.1-9.8 7.8-22.8 8.2-34.4l1.8-50.2c.6-17.8 2.1-35.8 1.7-53.6-.3-13.1-3.2-26.2-14.2-34.4a4.9 4.9 0 0 0-5 0c-5.6 3.7-5.5 9.7-5.7 15.7l-.9 24.7-1.5 50.6c-.3 8.4-4.3 32.6 11.4 29.8 6.8-1.2 9.5-7.4 10.9-13.4 1.8-7.8 3.5-15.7 5.2-23.6 1.4-6.3-8.3-9-9.6-2.7l-3.6 16.3c-.3 1.4-2.7 14.2-4.5 13s-.2-6.1-.1-6.6l.3-8.9.5-17.9 1-34.7.5-17.9.3-8.9c0-1.4-.6-6.2.7-7.1h-5c7.9 5.8 9.1 16.7 9.3 25.7.3 12.6-.7 25.3-1.1 37.9l-1.5 41.4c-.4 12.3-.1 24.9-1.7 37a40.4 40.4 0 0 1-3.9 13.6c-1 1.9-2.3 4.2-4 5.4 0 0-1.6 1.3-1 1.4s-2.3-5.1-2.6-5.8c-4.1-11.8-4.3-24.9-4.9-37.3-1.5-27.8-.9-55.6.3-83.3.6-15 1.4-30 2.2-45 .4-7.6.7-15.2 1.1-22.8.2-3.3.1-7.2 1.9-10.1s3.7-4.2 5.6-2.6c4.9 4.1 12-2.9 7.1-7.1z"/></svg>