<svg xmlns="http://www.w3.org/2000/svg" width="2.9in" height="240" viewBox="0 0 208.6 182.3"><path fill="#515352" d="M-473.4-319h809.3v628.95h-809.3z"/><path fill="#fff" stroke="#fff" stroke-miterlimit="10" stroke-width="3" d="M150.7 156.1a11.7 11.7 0 0 0 0 8.4h-40.5a11.7 11.7 0 0 0 0-8.4zm31.4 4.2a4.2 4.2 0 0 1-4.2 4.2h-4.6a11.7 11.7 0 0 0 0-8.4h4.6a4.2 4.2 0 0 1 4.2 4.2zm24.8-120.9l-25 76.3a4.2 4.2 0 0 1-4 2.9H66.6v37.5h21a11.7 11.7 0 0 0 0 8.4H62.4a4.2 4.2 0 0 1-4.2-4.2v-45.9a4.2 4.2 0 0 1 4.2-4.2h112.5l22.2-67.9H62.4a4.2 4.2 0 0 1-3.3-1.6L35.4 9.9H5.7a4.2 4.2 0 0 1 0-8.4h31.7a4.2 4.2 0 0 1 3.3 1.6l23.8 30.8h138.4a4.2 4.2 0 0 1 3.4 1.7 4.3 4.3 0 0 1 .6 3.8z"/><path fill="#fff" stroke="#fff" stroke-miterlimit="10" stroke-width="3" d="M118.9 156.1a20.5 20.5 0 0 0-40.1 0 20.2 20.2 0 0 0 0 8.4 20.5 20.5 0 0 0 40.1 0 20.2 20.2 0 0 0 0-8.4zm-20 16.3a12.1 12.1 0 0 1-11.3-7.9 11.7 11.7 0 0 1 0-8.4 12.1 12.1 0 0 1 22.6 0 11.7 11.7 0 0 1 0 8.4 12.1 12.1 0 0 1-11.3 7.9zm63.1-32.6a20.5 20.5 0 0 0-20.1 16.3 20.2 20.2 0 0 0 0 8.4 20.5 20.5 0 1 0 20.1-24.7zm0 32.6a12.1 12.1 0 0 1-11.3-7.9 11.7 11.7 0 0 1 0-8.4 12.1 12.1 0 0 1 22.6 0 11.7 11.7 0 0 1 0 8.4 12.1 12.1 0 0 1-11.3 7.9z"/></svg>