<svg xmlns="http://www.w3.org/2000/svg" width="6in" height="4.8in" viewBox="0 0 431.6 343"><path fill="#9e9d9e" d="M316.2 319.8a28.5 28.5 0 1 1 28.5-28.5 28.6 28.6 0 0 1-28.5 28.5zm0-47a18.5 18.5 0 1 0 18.5 18.5 18.5 18.5 0 0 0-18.5-18.6zm-66.3 47a28.5 28.5 0 1 1 28.5-28.5 28.6 28.6 0 0 1-28.5 28.5zm0-47a18.5 18.5 0 1 0 18.5 18.5 18.5 18.5 0 0 0-18.5-18.6zm-66.2 47a28.5 28.5 0 1 1 28.5-28.5 28.6 28.6 0 0 1-28.5 28.5zm0-47a18.5 18.5 0 1 0 18.5 18.5 18.5 18.5 0 0 0-18.5-18.6zm-66.3 47a28.5 28.5 0 1 1 28.5-28.5 28.6 28.6 0 0 1-28.5 28.5zm0-47a18.5 18.5 0 1 0 18.5 18.5 18.5 18.5 0 0 0-18.5-18.6zm-66.3 47a28.5 28.5 0 1 1 28.5-28.5 28.6 28.6 0 0 1-28.5 28.5zm0-47a18.5 18.5 0 1 0 18.5 18.5 18.5 18.5 0 0 0-18.5-18.6zm235.7-14.6a28.5 28.5 0 1 1 28.5-28.5 28.6 28.6 0 0 1-28.5 28.5zm0-47a18.5 18.5 0 1 0 18.5 18.5 18.5 18.5 0 0 0-18.5-18.6zm-66.3 47a28.5 28.5 0 1 1 28.5-28.6 28.6 28.6 0 0 1-28.5 28.6zm0-47a18.5 18.5 0 1 0 18.5 18.4 18.5 18.5 0 0 0-18.5-18.5zm-66.3 47a28.5 28.5 0 1 1 28.5-28.5 28.6 28.6 0 0 1-28.5 28.5zm0-47a18.5 18.5 0 1 0 18.5 18.5 18.5 18.5 0 0 0-18.5-18.6zm-66.3 47a28.5 28.5 0 1 1 28.5-28.5 28.6 28.6 0 0 1-28.5 28.5zm0-47a18.5 18.5 0 1 0 18.5 18.5 18.5 18.5 0 0 0-18.5-18.6zm-65.3 47a28.6 28.6 0 0 1-21-9.3 5 5 0 0 1-1.3-3.4v-31.8a5 5 0 0 1 1.3-3.4 28.5 28.5 0 1 1 21 47.8zm-12.3-14.7a18.3 18.3 0 0 0 12.3 4.7 18.5 18.5 0 0 0 0-37.1 18.3 18.3 0 0 0-12.3 4.7zM22.6 135a28.6 28.6 0 0 1-21-9.3 5 5 0 0 1-1.3-3.4V90.5a5 5 0 0 1 1.3-3.4 28.5 28.5 0 1 1 21 47.8zm-12.3-14.8a18.3 18.3 0 0 0 12.3 4.8 18.5 18.5 0 0 0 0-37 18.3 18.3 0 0 0-12.3 4.7zm342 14a28.5 28.5 0 1 1 21-47.8 5 5 0 0 1 1.3 3.4v31.8a5 5 0 0 1-1.3 3.4 28.6 28.6 0 0 1-21 9.2zm0-47.1a18.5 18.5 0 0 0 0 37.1 18.3 18.3 0 0 0 12.3-4.7V91.9a18.3 18.3 0 0 0-12.3-4.7zm0 170.3a28.5 28.5 0 1 1 21-47.8 5 5 0 0 1 1.3 3.4v31.8a5 5 0 0 1-1.3 3.4 28.6 28.6 0 0 1-21 9.2zm0-47.1a18.5 18.5 0 0 0 0 37.1 18.3 18.3 0 0 0 12.3-4.7v-27.6a18.3 18.3 0 0 0-12.3-4.7zm-36.1-13.7a28.5 28.5 0 1 1 28.6-28.6 28.6 28.6 0 0 1-28.6 28.6zm0-47a18.5 18.5 0 1 0 18.6 18.4 18.5 18.5 0 0 0-18.6-18.5zm-66.3 47a28.5 28.5 0 1 1 28.6-28.6 28.6 28.6 0 0 1-28.6 28.6zm0-47a18.5 18.5 0 1 0 18.6 18.4 18.5 18.5 0 0 0-18.6-18.5zm-66.2 47a28.5 28.5 0 1 1 28.5-28.6 28.6 28.6 0 0 1-28.5 28.6zm0-47a18.5 18.5 0 1 0 18.5 18.4 18.5 18.5 0 0 0-18.5-18.5zm-66.3 47a28.5 28.5 0 1 1 28.5-28.6 28.6 28.6 0 0 1-28.5 28.6zm0-47a18.5 18.5 0 1 0 18.5 18.4 18.5 18.5 0 0 0-18.5-18.5zm-66.3 47A28.5 28.5 0 1 1 79.6 168a28.6 28.6 0 0 1-28.5 28.6zm0-47A18.5 18.5 0 1 0 69.6 168a18.5 18.5 0 0 0-18.5-18.5zm265.1-76.3a28.5 28.5 0 1 1 28.5-28.5 28.6 28.6 0 0 1-28.5 28.5zm0-47a18.5 18.5 0 1 0 18.5 18.5 18.5 18.5 0 0 0-18.5-18.5zm-66.3 47a28.5 28.5 0 1 1 28.5-28.5 28.6 28.6 0 0 1-28.5 28.5zm0-47a18.5 18.5 0 1 0 18.5 18.5 18.5 18.5 0 0 0-18.5-18.5zm-66.2 47a28.5 28.5 0 1 1 28.5-28.5 28.6 28.6 0 0 1-28.5 28.5zm0-47a18.5 18.5 0 1 0 18.5 18.5 18.5 18.5 0 0 0-18.5-18.5zm-66.3 47a28.5 28.5 0 1 1 28.5-28.5 28.6 28.6 0 0 1-28.5 28.5zm0-47a18.5 18.5 0 1 0 18.5 18.5 18.5 18.5 0 0 0-18.5-18.5zm-66.3 47a28.5 28.5 0 1 1 28.5-28.5 28.6 28.6 0 0 1-28.5 28.5zm0-47a18.5 18.5 0 1 0 18.5 18.5 18.5 18.5 0 0 0-18.5-18.5zM286.8 135a28.5 28.5 0 1 1 28.5-28.5 28.6 28.6 0 0 1-28.5 28.5zm0-47a18.5 18.5 0 1 0 18.5 18.5 18.5 18.5 0 0 0-18.5-18.6zm-66.3 47a28.5 28.5 0 1 1 28.5-28.6 28.6 28.6 0 0 1-28.5 28.6zm0-47a18.5 18.5 0 1 0 18.5 18.4 18.5 18.5 0 0 0-18.5-18.5zm-66.3 47a28.5 28.5 0 1 1 28.5-28.5 28.6 28.6 0 0 1-28.5 28.5zm0-47a18.5 18.5 0 1 0 18.5 18.5 18.5 18.5 0 0 0-18.5-18.6zm-66.3 47a28.5 28.5 0 1 1 28.5-28.5A28.6 28.6 0 0 1 87.9 135zm0-47a18.5 18.5 0 1 0 18.5 18.5 18.5 18.5 0 0 0-18.5-18.6z"/><path fill="#515352" d="M415.5 343H16.2A16.4 16.4 0 0 1 0 326.4V16.6A16.4 16.4 0 0 1 16.2 0h399.3a16.4 16.4 0 0 1 16.2 16.6v309.8a16.4 16.4 0 0 1-16.2 16.6zM16.2 10a6.4 6.4 0 0 0-6.2 6.6v309.8a6.4 6.4 0 0 0 6.2 6.6h399.3a6.4 6.4 0 0 0 6.2-6.6V16.6a6.4 6.4 0 0 0-6.2-6.6z"/><path fill="#515352" d="M369.7 343a5 5 0 0 1-5-5V5a5 5 0 0 1 10 0v333a5 5 0 0 1-5 5zm18.8 0a5 5 0 0 1-5-5V5a5 5 0 0 1 10 0v333a5 5 0 0 1-5 5z"/></svg>