<svg id="Layer_1" data-name="Layer 1" xmlns="http://www.w3.org/2000/svg" width="2.9in" height="2.5in" viewBox="0 0 208.6 182.3"><title>cart</title><path d="M150.7,156.1a11.7,11.7,0,0,0,0,8.4H110.2a11.7,11.7,0,0,0,0-8.4Z" fill="#fff" stroke="#fff" stroke-miterlimit="10" stroke-width="3"/><path d="M182.1,160.3a4.2,4.2,0,0,1-4.2,4.2h-4.6a11.7,11.7,0,0,0,0-8.4h4.6A4.2,4.2,0,0,1,182.1,160.3Z" fill="#fff" stroke="#fff" stroke-miterlimit="10" stroke-width="3"/><path d="M206.9,39.4l-25,76.3a4.2,4.2,0,0,1-4,2.9H66.6v37.5H87.6a11.7,11.7,0,0,0,0,8.4H62.4a4.2,4.2,0,0,1-4.2-4.2V114.4a4.2,4.2,0,0,1,4.2-4.2H174.9l22.2-67.9H62.4a4.2,4.2,0,0,1-3.3-1.6L35.4,9.9H5.7a4.2,4.2,0,0,1,0-8.4H37.4a4.2,4.2,0,0,1,3.3,1.6L64.5,33.9H202.9a4.2,4.2,0,0,1,3.4,1.7A4.3,4.3,0,0,1,206.9,39.4Z" fill="#fff" stroke="#fff" stroke-miterlimit="10" stroke-width="3"/><path d="M118.9,156.1a20.5,20.5,0,0,0-40.1,0,20.2,20.2,0,0,0,0,8.4,20.5,20.5,0,0,0,40.1,0,20.2,20.2,0,0,0,0-8.4ZM98.9,172.4a12.1,12.1,0,0,1-11.3-7.9,11.7,11.7,0,0,1,0-8.4,12.1,12.1,0,0,1,22.6,0,11.7,11.7,0,0,1,0,8.4A12.1,12.1,0,0,1,98.9,172.4Z" fill="#fff" stroke="#fff" stroke-miterlimit="10" stroke-width="3"/><path d="M162,139.8a20.5,20.5,0,0,0-20.1,16.3,20.2,20.2,0,0,0,0,8.4A20.5,20.5,0,1,0,162,139.8Zm0,32.6a12.1,12.1,0,0,1-11.3-7.9,11.7,11.7,0,0,1,0-8.4,12.1,12.1,0,0,1,22.6,0,11.7,11.7,0,0,1,0,8.4A12.1,12.1,0,0,1,162,172.4Z" fill="#fff" stroke="#fff" stroke-miterlimit="10" stroke-width="3"/></svg>