<svg xmlns="http://www.w3.org/2000/svg"><symbol id="facebook-logo" viewBox="0 0 119.3 119.3"><path fill="#fff" d="M52 103.1V54.3h-8.5v-7.8H52v-2.7c0-8 1.9-15.2 7-19.8a21.8 21.8 0 0 1 14.7-5.3 27.1 27.1 0 0 1 9.4 1.6l-1.5 8a17.4 17.4 0 0 0-7-1.3c-9.4 0-11.7 7.7-11.7 16.4v3h14.5v7.8H62.8V103z"/></symbol><symbol id="insta-logo" viewBox="0 0 119.3 119.3"><g fill="#fff"><path d="M77.4 103.1H42a24.7 24.7 0 0 1-24.6-24.6V40.8A24.7 24.7 0 0 1 42 16.2h35.4A24.7 24.7 0 0 1 102 40.8v37.7a24.7 24.7 0 0 1-24.6 24.6zm0-6.5a18.2 18.2 0 0 0 18.1-18.1V40.8a18.2 18.2 0 0 0-18.1-18.1H42a18.2 18.2 0 0 0-18.1 18.1v37.7A18.2 18.2 0 0 0 42 96.6z"/><path d="M83.1 59.3A23.3 23.3 0 1 1 59.8 36a23.3 23.3 0 0 1 23.3 23.3zM59.7 44.1a15.3 15.3 0 1 0 15.2 15.2 15.3 15.3 0 0 0-15.2-15.2z"/><circle cx="83.5" cy="35.7" r="5.5"/></g></symbol><symbol id="vimeo-logo" viewBox="0 0 119.3 119.3"><path fill="#fff" d="M21.9 47.5c.6 1.7 2.5 3.5 3.6 5 12-14 17.3 29.3 21 35.4 9.1 14.8 22.9 1.7 31.1-7.5s30.7-38.1 14-49c-11.4-7.5-24 7.3-26.9 16.2 19.4-8.3 4.7 38.8-6.1 16.4-4-8.2-.1-24.6-8.5-30.7s-21.9 8.9-28.2 14.2z"/></symbol><symbol id="search" viewBox="0 0 157.2 185.6"><path fill="#fff" d="M155.9 175.3L116.6 122a70 70 0 1 0-10.5 7.7l39.4 53.3a6.5 6.5 0 1 0 10.5-7.7zM24.1 103.8a56.9 56.9 0 1 1 79.6 11.9 57 57 0 0 1-79.6-11.9z"/></symbol><symbol id="bubble-wrap-bag" viewBox="0 0 431.6 343"><path fill="#9e9d9e" d="M316.2 319.8a28.5 28.5 0 1 1 28.5-28.5 28.6 28.6 0 0 1-28.5 28.5zm0-47a18.5 18.5 0 1 0 18.5 18.5 18.5 18.5 0 0 0-18.5-18.6zm-66.3 47a28.5 28.5 0 1 1 28.5-28.5 28.6 28.6 0 0 1-28.5 28.5zm0-47a18.5 18.5 0 1 0 18.5 18.5 18.5 18.5 0 0 0-18.5-18.6zm-66.2 47a28.5 28.5 0 1 1 28.5-28.5 28.6 28.6 0 0 1-28.5 28.5zm0-47a18.5 18.5 0 1 0 18.5 18.5 18.5 18.5 0 0 0-18.5-18.6zm-66.3 47a28.5 28.5 0 1 1 28.5-28.5 28.6 28.6 0 0 1-28.5 28.5zm0-47a18.5 18.5 0 1 0 18.5 18.5 18.5 18.5 0 0 0-18.5-18.6zm-66.3 47a28.5 28.5 0 1 1 28.5-28.5 28.6 28.6 0 0 1-28.5 28.5zm0-47a18.5 18.5 0 1 0 18.5 18.5 18.5 18.5 0 0 0-18.5-18.6zm235.7-14.6a28.5 28.5 0 1 1 28.5-28.5 28.6 28.6 0 0 1-28.5 28.5zm0-47a18.5 18.5 0 1 0 18.5 18.5 18.5 18.5 0 0 0-18.5-18.6zm-66.3 47a28.5 28.5 0 1 1 28.5-28.6 28.6 28.6 0 0 1-28.5 28.6zm0-47a18.5 18.5 0 1 0 18.5 18.4 18.5 18.5 0 0 0-18.5-18.5zm-66.3 47a28.5 28.5 0 1 1 28.5-28.5 28.6 28.6 0 0 1-28.5 28.5zm0-47a18.5 18.5 0 1 0 18.5 18.5 18.5 18.5 0 0 0-18.5-18.6zm-66.3 47a28.5 28.5 0 1 1 28.5-28.5 28.6 28.6 0 0 1-28.5 28.5zm0-47a18.5 18.5 0 1 0 18.5 18.5 18.5 18.5 0 0 0-18.5-18.6zm-65.3 47a28.6 28.6 0 0 1-21-9.3 5 5 0 0 1-1.3-3.4v-31.8a5 5 0 0 1 1.3-3.4 28.5 28.5 0 1 1 21 47.8zm-12.3-14.7a18.3 18.3 0 0 0 12.3 4.7 18.5 18.5 0 0 0 0-37.1 18.3 18.3 0 0 0-12.3 4.7zM22.6 135a28.6 28.6 0 0 1-21-9.3 5 5 0 0 1-1.3-3.4V90.5a5 5 0 0 1 1.3-3.4 28.5 28.5 0 1 1 21 47.8zm-12.3-14.8a18.3 18.3 0 0 0 12.3 4.8 18.5 18.5 0 0 0 0-37 18.3 18.3 0 0 0-12.3 4.7zm342 14a28.5 28.5 0 1 1 21-47.8 5 5 0 0 1 1.3 3.4v31.8a5 5 0 0 1-1.3 3.4 28.6 28.6 0 0 1-21 9.2zm0-47.1a18.5 18.5 0 0 0 0 37.1 18.3 18.3 0 0 0 12.3-4.7V91.9a18.3 18.3 0 0 0-12.3-4.7zm0 170.3a28.5 28.5 0 1 1 21-47.8 5 5 0 0 1 1.3 3.4v31.8a5 5 0 0 1-1.3 3.4 28.6 28.6 0 0 1-21 9.2zm0-47.1a18.5 18.5 0 0 0 0 37.1 18.3 18.3 0 0 0 12.3-4.7v-27.6a18.3 18.3 0 0 0-12.3-4.7zm-36.1-13.7a28.5 28.5 0 1 1 28.6-28.6 28.6 28.6 0 0 1-28.6 28.6zm0-47a18.5 18.5 0 1 0 18.6 18.4 18.5 18.5 0 0 0-18.6-18.5zm-66.3 47a28.5 28.5 0 1 1 28.6-28.6 28.6 28.6 0 0 1-28.6 28.6zm0-47a18.5 18.5 0 1 0 18.6 18.4 18.5 18.5 0 0 0-18.6-18.5zm-66.2 47a28.5 28.5 0 1 1 28.5-28.6 28.6 28.6 0 0 1-28.5 28.6zm0-47a18.5 18.5 0 1 0 18.5 18.4 18.5 18.5 0 0 0-18.5-18.5zm-66.3 47a28.5 28.5 0 1 1 28.5-28.6 28.6 28.6 0 0 1-28.5 28.6zm0-47a18.5 18.5 0 1 0 18.5 18.4 18.5 18.5 0 0 0-18.5-18.5zm-66.3 47A28.5 28.5 0 1 1 79.6 168a28.6 28.6 0 0 1-28.5 28.6zm0-47A18.5 18.5 0 1 0 69.6 168a18.5 18.5 0 0 0-18.5-18.5zm265.1-76.3a28.5 28.5 0 1 1 28.5-28.5 28.6 28.6 0 0 1-28.5 28.5zm0-47a18.5 18.5 0 1 0 18.5 18.5 18.5 18.5 0 0 0-18.5-18.5zm-66.3 47a28.5 28.5 0 1 1 28.5-28.5 28.6 28.6 0 0 1-28.5 28.5zm0-47a18.5 18.5 0 1 0 18.5 18.5 18.5 18.5 0 0 0-18.5-18.5zm-66.2 47a28.5 28.5 0 1 1 28.5-28.5 28.6 28.6 0 0 1-28.5 28.5zm0-47a18.5 18.5 0 1 0 18.5 18.5 18.5 18.5 0 0 0-18.5-18.5zm-66.3 47a28.5 28.5 0 1 1 28.5-28.5 28.6 28.6 0 0 1-28.5 28.5zm0-47a18.5 18.5 0 1 0 18.5 18.5 18.5 18.5 0 0 0-18.5-18.5zm-66.3 47a28.5 28.5 0 1 1 28.5-28.5 28.6 28.6 0 0 1-28.5 28.5zm0-47a18.5 18.5 0 1 0 18.5 18.5 18.5 18.5 0 0 0-18.5-18.5zM286.8 135a28.5 28.5 0 1 1 28.5-28.5 28.6 28.6 0 0 1-28.5 28.5zm0-47a18.5 18.5 0 1 0 18.5 18.5 18.5 18.5 0 0 0-18.5-18.6zm-66.3 47a28.5 28.5 0 1 1 28.5-28.6 28.6 28.6 0 0 1-28.5 28.6zm0-47a18.5 18.5 0 1 0 18.5 18.4 18.5 18.5 0 0 0-18.5-18.5zm-66.3 47a28.5 28.5 0 1 1 28.5-28.5 28.6 28.6 0 0 1-28.5 28.5zm0-47a18.5 18.5 0 1 0 18.5 18.5 18.5 18.5 0 0 0-18.5-18.6zm-66.3 47a28.5 28.5 0 1 1 28.5-28.5A28.6 28.6 0 0 1 87.9 135zm0-47a18.5 18.5 0 1 0 18.5 18.5 18.5 18.5 0 0 0-18.5-18.6z"/><path fill="#515352" d="M415.5 343H16.2A16.4 16.4 0 0 1 0 326.4V16.6A16.4 16.4 0 0 1 16.2 0h399.3a16.4 16.4 0 0 1 16.2 16.6v309.8a16.4 16.4 0 0 1-16.2 16.6zM16.2 10a6.4 6.4 0 0 0-6.2 6.6v309.8a6.4 6.4 0 0 0 6.2 6.6h399.3a6.4 6.4 0 0 0 6.2-6.6V16.6a6.4 6.4 0 0 0-6.2-6.6z"/><path fill="#515352" d="M369.7 343a5 5 0 0 1-5-5V5a5 5 0 0 1 10 0v333a5 5 0 0 1-5 5zm18.8 0a5 5 0 0 1-5-5V5a5 5 0 0 1 10 0v333a5 5 0 0 1-5 5z"/></symbol><symbol id="bubble-wrap-roll" viewBox="0 0 519 395"><circle cx="118.5" cy="156.5" r="23.5" fill="none" stroke="#9e9d9e" stroke-linecap="round" stroke-linejoin="round" stroke-width="10"/><circle cx="185.7" cy="156.5" r="23.5" fill="none" stroke="#9e9d9e" stroke-linecap="round" stroke-linejoin="round" stroke-width="10"/><circle cx="252" cy="156.5" r="23.5" fill="none" stroke="#9e9d9e" stroke-linecap="round" stroke-linejoin="round" stroke-width="10"/><circle cx="318.3" cy="156.5" r="23.5" fill="none" stroke="#9e9d9e" stroke-linecap="round" stroke-linejoin="round" stroke-width="10"/><circle cx="384.6" cy="156.5" r="23.5" fill="none" stroke="#9e9d9e" stroke-linecap="round" stroke-linejoin="round" stroke-width="10"/><circle cx="450.8" cy="156.5" r="23.5" fill="none" stroke="#9e9d9e" stroke-linecap="round" stroke-linejoin="round" stroke-width="10"/><circle cx="118.5" cy="348.6" r="23.5" fill="none" stroke="#9e9d9e" stroke-linecap="round" stroke-linejoin="round" stroke-width="10"/><circle cx="185.7" cy="348.6" r="23.5" fill="none" stroke="#9e9d9e" stroke-linecap="round" stroke-linejoin="round" stroke-width="10"/><circle cx="252" cy="348.6" r="23.5" fill="none" stroke="#9e9d9e" stroke-linecap="round" stroke-linejoin="round" stroke-width="10"/><circle cx="318.3" cy="348.6" r="23.5" fill="none" stroke="#9e9d9e" stroke-linecap="round" stroke-linejoin="round" stroke-width="10"/><circle cx="384.6" cy="348.6" r="23.5" fill="none" stroke="#9e9d9e" stroke-linecap="round" stroke-linejoin="round" stroke-width="10"/><circle cx="450.8" cy="348.6" r="23.5" fill="none" stroke="#9e9d9e" stroke-linecap="round" stroke-linejoin="round" stroke-width="10"/><ellipse cx="35" cy="156.5" fill="none" stroke="#515352" stroke-linecap="round" stroke-linejoin="round" stroke-width="10.98" rx="29.6" ry="151"/><path fill="none" stroke="#515352" stroke-linecap="round" stroke-linejoin="round" stroke-width="10.98" d="M35 5.5h431.3s58.3 162.5 0 302H35s56 43 50.9 81.9h427.6s-25.6-66.9-47.2-81.9"/><ellipse cx="97.3" cy="39.8" fill="none" stroke="#9e9d9e" stroke-linecap="round" stroke-linejoin="round" stroke-width="8.86" rx="23.5" ry="18.5"/><ellipse cx="164.5" cy="39.8" fill="none" stroke="#9e9d9e" stroke-linecap="round" stroke-linejoin="round" stroke-width="8.86" rx="23.5" ry="18.5"/><ellipse cx="230.8" cy="39.8" fill="none" stroke="#9e9d9e" stroke-linecap="round" stroke-linejoin="round" stroke-width="8.86" rx="23.5" ry="18.5"/><ellipse cx="297.1" cy="39.8" fill="none" stroke="#9e9d9e" stroke-linecap="round" stroke-linejoin="round" stroke-width="8.86" rx="23.5" ry="18.5"/><ellipse cx="363.3" cy="39.8" fill="none" stroke="#9e9d9e" stroke-linecap="round" stroke-linejoin="round" stroke-width="8.86" rx="23.5" ry="18.5"/><ellipse cx="429.6" cy="39.8" fill="none" stroke="#9e9d9e" stroke-linecap="round" stroke-linejoin="round" stroke-width="8.86" rx="23.5" ry="18.5"/><ellipse cx="98.2" cy="273" fill="none" stroke="#9e9d9e" stroke-linecap="round" stroke-linejoin="round" stroke-width="8.86" rx="23.5" ry="18.5"/><ellipse cx="165.4" cy="273" fill="none" stroke="#9e9d9e" stroke-linecap="round" stroke-linejoin="round" stroke-width="8.86" rx="23.5" ry="18.5"/><ellipse cx="231.7" cy="273" fill="none" stroke="#9e9d9e" stroke-linecap="round" stroke-linejoin="round" stroke-width="8.86" rx="23.5" ry="18.5"/><ellipse cx="298" cy="273" fill="none" stroke="#9e9d9e" stroke-linecap="round" stroke-linejoin="round" stroke-width="8.86" rx="23.5" ry="18.5"/><ellipse cx="364.3" cy="273" fill="none" stroke="#9e9d9e" stroke-linecap="round" stroke-linejoin="round" stroke-width="8.86" rx="23.5" ry="18.5"/><ellipse cx="430.6" cy="273" fill="none" stroke="#9e9d9e" stroke-linecap="round" stroke-linejoin="round" stroke-width="8.86" rx="23.5" ry="18.5"/><ellipse cx="112.9" cy="217.3" fill="none" stroke="#9e9d9e" stroke-linecap="round" stroke-linejoin="round" stroke-width="9.73" rx="23.5" ry="22.3"/><ellipse cx="180.1" cy="217.3" fill="none" stroke="#9e9d9e" stroke-linecap="round" stroke-linejoin="round" stroke-width="9.73" rx="23.5" ry="22.3"/><ellipse cx="246.4" cy="217.3" fill="none" stroke="#9e9d9e" stroke-linecap="round" stroke-linejoin="round" stroke-width="9.73" rx="23.5" ry="22.3"/><ellipse cx="312.6" cy="217.3" fill="none" stroke="#9e9d9e" stroke-linecap="round" stroke-linejoin="round" stroke-width="9.73" rx="23.5" ry="22.3"/><ellipse cx="378.9" cy="217.3" fill="none" stroke="#9e9d9e" stroke-linecap="round" stroke-linejoin="round" stroke-width="9.73" rx="23.5" ry="22.3"/><ellipse cx="445.2" cy="217.3" fill="none" stroke="#9e9d9e" stroke-linecap="round" stroke-linejoin="round" stroke-width="9.73" rx="23.5" ry="22.3"/><ellipse cx="111.2" cy="93.6" fill="none" stroke="#9e9d9e" stroke-linecap="round" stroke-linejoin="round" stroke-width="9.61" rx="23.5" ry="21.7"/><ellipse cx="178.4" cy="93.6" fill="none" stroke="#9e9d9e" stroke-linecap="round" stroke-linejoin="round" stroke-width="9.61" rx="23.5" ry="21.7"/><ellipse cx="244.7" cy="93.6" fill="none" stroke="#9e9d9e" stroke-linecap="round" stroke-linejoin="round" stroke-width="9.61" rx="23.5" ry="21.7"/><ellipse cx="311" cy="93.6" fill="none" stroke="#9e9d9e" stroke-linecap="round" stroke-linejoin="round" stroke-width="9.61" rx="23.5" ry="21.7"/><ellipse cx="377.3" cy="93.6" fill="none" stroke="#9e9d9e" stroke-linecap="round" stroke-linejoin="round" stroke-width="9.61" rx="23.5" ry="21.7"/><ellipse cx="443.5" cy="93.6" fill="none" stroke="#9e9d9e" stroke-linecap="round" stroke-linejoin="round" stroke-width="9.61" rx="23.5" ry="21.7"/><path fill="#515352" d="M54.3 32a13 13 0 0 0-14.9-1.6c-5.5 2.8-8.1 8.4-9 14.3-1.2 7.6-1.1 15.5-1.5 23.2l-1.2 24.8c-1.7 33.7-3.3 67.5-2 101.2.6 15.2.6 31.7 4.9 46.4 1.5 5.1 4 13.9 9.9 15.6s11.5-4 14.6-8.3c7.1-9.8 7.8-22.8 8.2-34.4l1.8-50.2c.6-17.8 2.1-35.8 1.7-53.6-.3-13.1-3.2-26.2-14.2-34.4a4.9 4.9 0 0 0-5 0c-5.6 3.7-5.5 9.7-5.7 15.7l-.9 24.7-1.5 50.6c-.3 8.4-4.3 32.6 11.4 29.8 6.8-1.2 9.5-7.4 10.9-13.4 1.8-7.8 3.5-15.7 5.2-23.6 1.4-6.3-8.3-9-9.6-2.7l-3.6 16.3c-.3 1.4-2.7 14.2-4.5 13s-.2-6.1-.1-6.6l.3-8.9.5-17.9 1-34.7.5-17.9.3-8.9c0-1.4-.6-6.2.7-7.1h-5c7.9 5.8 9.1 16.7 9.3 25.7.3 12.6-.7 25.3-1.1 37.9l-1.5 41.4c-.4 12.3-.1 24.9-1.7 37a40.4 40.4 0 0 1-3.9 13.6c-1 1.9-2.3 4.2-4 5.4 0 0-1.6 1.3-1 1.4s-2.3-5.1-2.6-5.8c-4.1-11.8-4.3-24.9-4.9-37.3-1.5-27.8-.9-55.6.3-83.3.6-15 1.4-30 2.2-45 .4-7.6.7-15.2 1.1-22.8.2-3.3.1-7.2 1.9-10.1s3.7-4.2 5.6-2.6c4.9 4.1 12-2.9 7.1-7.1z"/></symbol><symbol id="bubble-wrap-sheet" viewBox="0 0 470.8 343"><path fill="#9e9d9e" d="M87.6 80.3a28.5 28.5 0 1 1 28.5-28.5 28.6 28.6 0 0 1-28.5 28.5zm0-47a18.5 18.5 0 1 0 18.5 18.5 18.5 18.5 0 0 0-18.5-18.6zm67.2 47a28.5 28.5 0 1 1 28.5-28.5 28.6 28.6 0 0 1-28.5 28.5zm0-47a18.5 18.5 0 1 0 18.5 18.5 18.5 18.5 0 0 0-18.5-18.6zm66.3 47a28.5 28.5 0 1 1 28.5-28.5 28.6 28.6 0 0 1-28.5 28.5zm0-47a18.5 18.5 0 1 0 18.5 18.5 18.5 18.5 0 0 0-18.5-18.6zm66.3 47a28.5 28.5 0 1 1 28.5-28.5 28.6 28.6 0 0 1-28.5 28.5zm0-47a18.5 18.5 0 1 0 18.5 18.5 18.5 18.5 0 0 0-18.5-18.6zm66.3 47a28.5 28.5 0 1 1 28.5-28.5 28.6 28.6 0 0 1-28.5 28.5zm0-47a18.5 18.5 0 1 0 18.5 18.5 18.5 18.5 0 0 0-18.5-18.6zm66.3 47a28.5 28.5 0 1 1 28.5-28.5A28.6 28.6 0 0 1 420 80.3zm0-47a18.5 18.5 0 1 0 18.5 18.5A18.5 18.5 0 0 0 420 33.2zM50.8 141.9a28.5 28.5 0 1 1 28.5-28.5 28.6 28.6 0 0 1-28.5 28.5zm0-47a18.5 18.5 0 1 0 18.5 18.5 18.5 18.5 0 0 0-18.5-18.6zm67.2 47a28.5 28.5 0 1 1 28.5-28.5 28.6 28.6 0 0 1-28.5 28.5zm0-47a18.5 18.5 0 1 0 18.5 18.5A18.5 18.5 0 0 0 118 94.8zm66.3 47a28.5 28.5 0 1 1 28.5-28.5 28.6 28.6 0 0 1-28.5 28.5zm0-47a18.5 18.5 0 1 0 18.5 18.5 18.5 18.5 0 0 0-18.5-18.6zm66.3 47a28.5 28.5 0 1 1 28.5-28.5 28.6 28.6 0 0 1-28.5 28.5zm0-47a18.5 18.5 0 1 0 18.5 18.5 18.5 18.5 0 0 0-18.5-18.6zm66.3 47a28.5 28.5 0 1 1 28.5-28.5 28.6 28.6 0 0 1-28.5 28.5zm0-47a18.5 18.5 0 1 0 18.5 18.5 18.5 18.5 0 0 0-18.5-18.6zm66.2 47a28.5 28.5 0 1 1 28.5-28.5 28.6 28.6 0 0 1-28.5 28.5zm0-47a18.5 18.5 0 1 0 18.5 18.5 18.5 18.5 0 0 0-18.5-18.6zM87.6 203.5a28.5 28.5 0 1 1 28.6-28.5 28.6 28.6 0 0 1-28.6 28.5zm0-47a18.5 18.5 0 1 0 18.6 18.5 18.5 18.5 0 0 0-18.6-18.5zm-65.3 47a28.6 28.6 0 0 1-21-9.3 5 5 0 0 1-1.3-3.3v-31.8a5 5 0 0 1 1.3-3.4 28.5 28.5 0 1 1 21 47.8zM10 188.8a18.3 18.3 0 0 0 12.3 4.7 18.5 18.5 0 0 0 0-37 18.3 18.3 0 0 0-12.3 4.7zM22.3 80.3a28.6 28.6 0 0 1-21-9.3A5 5 0 0 1 0 67.7V35.9a5 5 0 0 1 1.3-3.4 28.5 28.5 0 1 1 21 47.8zM10 65.6a18.3 18.3 0 0 0 12.3 4.7 18.5 18.5 0 0 0 0-37A18.3 18.3 0 0 0 10 37.9zm438.4 76.3a28.5 28.5 0 1 1 21-47.8 5 5 0 0 1 1.3 3.4v31.8a5 5 0 0 1-1.3 3.4 28.6 28.6 0 0 1-21 9.2zm0-47a18.5 18.5 0 0 0 0 37 18.3 18.3 0 0 0 12.3-4.7V99.5a18.3 18.3 0 0 0-12.3-4.7zm0 170.2a28.5 28.5 0 1 1 21-47.8 5 5 0 0 1 1.3 3.4v31.8a5 5 0 0 1-1.3 3.4 28.6 28.6 0 0 1-21 9.2zm0-47a18.5 18.5 0 0 0 0 37 18.3 18.3 0 0 0 12.3-4.7v-27.6a18.3 18.3 0 0 0-12.3-4.7zM22.3 326.7a28.6 28.6 0 0 1-21-9.3 5 5 0 0 1-1.3-3.3v-31.8a5 5 0 0 1 1.3-3.4 28.5 28.5 0 1 1 21 47.8zM10 312a18.3 18.3 0 0 0 12.3 4.7 18.5 18.5 0 0 0 0-37.1 18.3 18.3 0 0 0-12.3 4.8zm144.8-108.5a28.5 28.5 0 1 1 28.6-28.5 28.6 28.6 0 0 1-28.6 28.5zm0-47a18.5 18.5 0 1 0 18.6 18.5 18.5 18.5 0 0 0-18.6-18.5zm66.3 47a28.5 28.5 0 1 1 28.5-28.5 28.6 28.6 0 0 1-28.5 28.5zm0-47a18.5 18.5 0 1 0 18.5 18.5 18.5 18.5 0 0 0-18.5-18.5zm66.3 47a28.5 28.5 0 1 1 28.5-28.5 28.6 28.6 0 0 1-28.5 28.5zm0-47a18.5 18.5 0 1 0 18.5 18.5 18.5 18.5 0 0 0-18.5-18.5zm66.3 47a28.5 28.5 0 1 1 28.5-28.5 28.6 28.6 0 0 1-28.5 28.5zm0-47a18.5 18.5 0 1 0 18.5 18.5 18.5 18.5 0 0 0-18.5-18.5zm66.3 47a28.5 28.5 0 1 1 28.5-28.5 28.6 28.6 0 0 1-28.5 28.5zm0-47a18.5 18.5 0 1 0 18.5 18.5 18.5 18.5 0 0 0-18.5-18.5zM87.6 326.7a28.5 28.5 0 1 1 28.5-28.5 28.6 28.6 0 0 1-28.5 28.5zm0-47a18.5 18.5 0 1 0 18.5 18.5 18.5 18.5 0 0 0-18.5-18.5zm67.2 47a28.5 28.5 0 1 1 28.5-28.5 28.6 28.6 0 0 1-28.5 28.5zm0-47a18.5 18.5 0 1 0 18.5 18.5 18.5 18.5 0 0 0-18.5-18.5zm66.3 47a28.5 28.5 0 1 1 28.5-28.5 28.6 28.6 0 0 1-28.5 28.5zm0-47a18.5 18.5 0 1 0 18.5 18.5 18.5 18.5 0 0 0-18.5-18.5zm66.3 47a28.5 28.5 0 1 1 28.5-28.5 28.6 28.6 0 0 1-28.5 28.5zm0-47a18.5 18.5 0 1 0 18.5 18.5 18.5 18.5 0 0 0-18.5-18.5zm66.3 47a28.5 28.5 0 1 1 28.5-28.5 28.6 28.6 0 0 1-28.5 28.5zm0-47a18.5 18.5 0 1 0 18.5 18.5 18.5 18.5 0 0 0-18.5-18.5zm66.3 47a28.5 28.5 0 1 1 28.5-28.5 28.6 28.6 0 0 1-28.5 28.5zm0-47a18.5 18.5 0 1 0 18.5 18.5 18.5 18.5 0 0 0-18.5-18.5zM50.8 265.1a28.5 28.5 0 1 1 28.5-28.5 28.6 28.6 0 0 1-28.5 28.5zm0-47a18.5 18.5 0 1 0 18.5 18.5 18.5 18.5 0 0 0-18.5-18.5zm67.2 47a28.5 28.5 0 1 1 28.5-28.5 28.6 28.6 0 0 1-28.5 28.5zm0-47a18.5 18.5 0 1 0 18.5 18.5 18.5 18.5 0 0 0-18.5-18.5zm66.3 47a28.5 28.5 0 1 1 28.5-28.5 28.6 28.6 0 0 1-28.5 28.5zm0-47a18.5 18.5 0 1 0 18.5 18.5 18.5 18.5 0 0 0-18.5-18.5zm66.3 47a28.5 28.5 0 1 1 28.5-28.5 28.6 28.6 0 0 1-28.5 28.5zm0-47a18.5 18.5 0 1 0 18.5 18.5 18.5 18.5 0 0 0-18.5-18.5zm66.3 47a28.5 28.5 0 1 1 28.5-28.5 28.6 28.6 0 0 1-28.5 28.5zm0-47a18.5 18.5 0 1 0 18.5 18.5 18.5 18.5 0 0 0-18.5-18.5zm66.2 47a28.5 28.5 0 1 1 28.5-28.5 28.6 28.6 0 0 1-28.5 28.5zm0-47a18.5 18.5 0 1 0 18.5 18.5 18.5 18.5 0 0 0-18.5-18.5z"/><path fill="#515352" d="M453.6 343H17.2C7.7 343 0 335.6 0 326.4V16.6C0 7.4 7.7 0 17.2 0h436.4c9.5 0 17.2 7.4 17.2 16.6v309.8c0 9.2-7.7 16.6-17.2 16.6zM17.2 10c-4 0-7.2 3-7.2 6.6v309.8c0 3.6 3.2 6.6 7.2 6.6h436.4c4 0 7.2-3 7.2-6.6V16.6c0-3.6-3.2-6.6-7.2-6.6z"/></symbol><symbol id="cart" viewBox="0 0 195.6 168.2"><path fill="#505352" d="M122.8 147.9a9.7 9.7 0 0 0 0 6.9H89.5a9.7 9.7 0 0 0 0-6.9zm25.8 3.5a3.5 3.5 0 0 1-3.5 3.5h-3.8a9.7 9.7 0 0 0 0-6.9h3.8a3.5 3.5 0 0 1 3.5 3.4zM169 51.9l-20.6 62.8a3.5 3.5 0 0 1-3.3 2.4H53.6V148h17.2a9.7 9.7 0 0 0 0 6.9H50.1a3.5 3.5 0 0 1-3.5-3.5v-37.8a3.5 3.5 0 0 1 3.5-3.5h92.5L161 54.2H50.1a3.5 3.5 0 0 1-2.7-1.3L27.9 27.6H3.5a3.5 3.5 0 1 1 0-6.9h26.1a3.4 3.4 0 0 1 2.7 1.3l19.5 25.3h113.9a3.5 3.5 0 0 1 2.8 1.4 3.5 3.5 0 0 1 .5 3.2z"/><path fill="#505352" d="M96.7 147.9a16.9 16.9 0 0 0-33 0 16.7 16.7 0 0 0 0 6.9 16.9 16.9 0 0 0 33 0 16.7 16.7 0 0 0 0-6.9zm-16.6 13.4a9.9 9.9 0 0 1-9.3-6.5 9.7 9.7 0 0 1 0-6.9 9.9 9.9 0 0 1 18.6 0 9.7 9.7 0 0 1 0 6.9 9.9 9.9 0 0 1-9.3 6.5zm52-26.8a16.9 16.9 0 0 0-16.5 13.4 16.7 16.7 0 0 0 0 6.9 16.9 16.9 0 1 0 16.5-20.3zm0 26.8a9.9 9.9 0 0 1-9.3-6.5 9.7 9.7 0 0 1 0-6.9 9.9 9.9 0 0 1 18.6 0 9.7 9.7 0 0 1 0 6.9 9.9 9.9 0 0 1-9.3 6.5z"/></symbol><symbol id="cart-1" viewBox="0 0 195.6 168.2"><path fill="#505352" d="M122.8 147.9a9.7 9.7 0 0 0 0 6.9H89.5a9.7 9.7 0 0 0 0-6.9zm25.8 3.5a3.5 3.5 0 0 1-3.5 3.5h-3.8a9.7 9.7 0 0 0 0-6.9h3.8a3.5 3.5 0 0 1 3.5 3.4zM169 51.9l-20.6 62.8a3.5 3.5 0 0 1-3.3 2.4H53.6V148h17.2a9.7 9.7 0 0 0 0 6.9H50.1a3.5 3.5 0 0 1-3.5-3.5v-37.8a3.5 3.5 0 0 1 3.5-3.5h92.5L161 54.2H50.1a3.5 3.5 0 0 1-2.7-1.3L27.9 27.6H3.5a3.5 3.5 0 1 1 0-6.9h26.1a3.4 3.4 0 0 1 2.7 1.3l19.5 25.3h113.9a3.5 3.5 0 0 1 2.8 1.4 3.5 3.5 0 0 1 .5 3.2z"/><path fill="#505352" d="M96.7 147.9a16.9 16.9 0 0 0-33 0 16.7 16.7 0 0 0 0 6.9 16.9 16.9 0 0 0 33 0 16.7 16.7 0 0 0 0-6.9zm-16.6 13.4a9.9 9.9 0 0 1-9.3-6.5 9.7 9.7 0 0 1 0-6.9 9.9 9.9 0 0 1 18.6 0 9.7 9.7 0 0 1 0 6.9 9.9 9.9 0 0 1-9.3 6.5zm52-26.8a16.9 16.9 0 0 0-16.5 13.4 16.7 16.7 0 0 0 0 6.9 16.9 16.9 0 1 0 16.5-20.3zm0 26.8a9.9 9.9 0 0 1-9.3-6.5 9.7 9.7 0 0 1 0-6.9 9.9 9.9 0 0 1 18.6 0 9.7 9.7 0 0 1 0 6.9 9.9 9.9 0 0 1-9.3 6.5z"/><circle cx="155.7" cy="39.8" r="39.2" fill="#f26941" stroke="#f26941" stroke-miterlimit="10" stroke-width="1.32"/><path fill="#fff" d="M160.5 57.9h-5.6V35.6q0-4 .2-6.3l-1.3 1.3-5.3 4.4-2.8-3.5 10.2-8h4.6z"/></symbol><symbol id="error" viewBox="0 0 79.7 79.7"><circle cx="39.8" cy="39.8" r="39.2" fill="#f26941" stroke="#f26941" stroke-miterlimit="10" stroke-width="1.32"/><path fill="#fff" d="M40.4 71a7 7 0 0 1-7.1-6.7 7.2 7.2 0 0 1 14.3 0 6.9 6.9 0 0 1-7.2 6.7zm-5.8-45.8a62.3 62.3 0 0 1-1.2-8.6c0-3.7 2.7-6.6 7-6.6s7 2.9 7 6.6a60.7 60.7 0 0 1-1.1 8.6l-4.4 26.7h-3z"/></symbol></svg>