<svg xmlns="http://www.w3.org/2000/svg" width="1.7in" height="1.7in" viewBox="0 0 119.3 119.3"><g fill="#fff"><path d="M77.4 103.1H42a24.7 24.7 0 0 1-24.6-24.6V40.8A24.7 24.7 0 0 1 42 16.2h35.4A24.7 24.7 0 0 1 102 40.8v37.7a24.7 24.7 0 0 1-24.6 24.6zm0-6.5a18.2 18.2 0 0 0 18.1-18.1V40.8a18.2 18.2 0 0 0-18.1-18.1H42a18.2 18.2 0 0 0-18.1 18.1v37.7A18.2 18.2 0 0 0 42 96.6z"/><path d="M83.1 59.3A23.3 23.3 0 1 1 59.8 36a23.3 23.3 0 0 1 23.3 23.3zM59.7 44.1a15.3 15.3 0 1 0 15.2 15.2 15.3 15.3 0 0 0-15.2-15.2z"/><circle cx="83.5" cy="35.7" r="5.5"/></g></svg>