<svg id="Layer_2" data-name="Layer 2" xmlns="http://www.w3.org/2000/svg" width="0.3in" height="0.2in" viewBox="0 0 18 13.4"><title>logo-16</title><circle cx="7.1" cy="3.7" r="2.9" transform="translate(-0.9 3.9) rotate(-28.9)" fill="#505352"/><path d="M10.9,12.6a2.9,2.9,0,1,1,1.4-.4h0A2.9,2.9,0,0,1,10.9,12.6Zm0-4.9L10,8a2,2,0,0,0,1.9,3.5h0a2,2,0,0,0-1-3.8Z" fill="#505352"/><path d="M3.9,12.6a2.9,2.9,0,1,1,1.4-.4h0A2.9,2.9,0,0,1,3.9,12.6Zm0-4.9L3,8a2,2,0,0,0,1.9,3.5h0a2,2,0,0,0-1-3.8Z" fill="#505352"/><path d="M14.1,6.6a2.9,2.9,0,1,1,1.4-.4h0A2.9,2.9,0,0,1,14.1,6.6Zm0-4.9-1,.2a2,2,0,1,0,1-.2Z" fill="#505352"/></svg>