<svg id="Layer_2" data-name="Layer 2" xmlns="http://www.w3.org/2000/svg" width="3.8in" height="1.5in" viewBox="0 0 270.6 106.5"><title>logo-256</title><circle cx="61.7" cy="29" r="26.1" transform="translate(-6.3 33.4) rotate(-28.9)" fill="#505352"/><path d="M137.7,72.8a14.9,14.9,0,0,0-7.8,2.2V61.8h-7.3v26h0a15,15,0,1,0,15-15Zm0,22.7a7.7,7.7,0,1,1,7.7-7.7A7.7,7.7,0,0,1,137.7,95.5Z" fill="#505352"/><path d="M203.2,72.8a14.9,14.9,0,0,0-7.7,2.2V61.8h-7.3v26a15,15,0,1,0,15-15Zm0,22.7a7.7,7.7,0,1,1,7.7-7.7A7.7,7.7,0,0,1,203.2,95.5Z" fill="#505352"/><path d="M236.9,72.8a15,15,0,0,0-7.7,2.2V61.8h-7.3v26a15,15,0,1,0,15-15Zm0,22.7a7.7,7.7,0,1,1,7.7-7.7A7.7,7.7,0,0,1,236.9,95.5Z" fill="#505352"/><rect x="256" y="61.8" width="7.3" height="40.63" fill="#505352"/><path d="M182.9,73.8V90c0,14-12.6,13.6-12.6,13.6-14.1.6-13.6-13.6-13.6-13.6V73.8H164V90c1,6.8,6.3,5.9,6.3,5.9,5.9,0,5.4-5.9,5.4-5.9V73.8Z" fill="#505352"/><path d="M90.1,103.6a26,26,0,1,1,12.5-3.2h0A25.9,25.9,0,0,1,90.1,103.6ZM90,59.7a17.9,17.9,0,1,0,8.7,33.6h0A17.9,17.9,0,0,0,90,59.7Z" fill="#505352"/><path d="M33.4,103.6a26,26,0,1,1,12.5-3.2h0A25.9,25.9,0,0,1,33.4,103.6Zm-.1-43.9A17.9,17.9,0,1,0,42,93.3h0a17.9,17.9,0,0,0-8.7-33.6Z" fill="#505352"/><path d="M118.5,55A26,26,0,1,1,131,51.7h0A25.9,25.9,0,0,1,118.5,55ZM118.4,11a17.9,17.9,0,1,0,15.7,9.3A17.8,17.8,0,0,0,118.4,11Z" fill="#505352"/></svg>