<svg id="Layer_2" data-name="Layer 2" xmlns="http://www.w3.org/2000/svg" width="0.5in" height="0.4in" viewBox="0 0 35.1 26"><title>logo-32</title><circle cx="14" cy="7.2" r="5.8" transform="translate(-1.7 7.6) rotate(-28.9)" fill="#505352"/><path d="M21.2,24.6a5.8,5.8,0,1,1,2.8-.7h0A5.8,5.8,0,0,1,21.2,24.6Zm0-9.8a4,4,0,1,0,1.9,7.5h0a4,4,0,0,0-1.9-7.5Z" fill="#505352"/><path d="M7.6,24.6a5.8,5.8,0,1,1,2.8-.7h0A5.8,5.8,0,0,1,7.6,24.6Zm0-9.8a4,4,0,1,0,1.9,7.5h0a4,4,0,0,0-1.9-7.5Z" fill="#505352"/><path d="M27.5,13a5.8,5.8,0,1,1,2.8-.7h0A5.8,5.8,0,0,1,27.5,13Zm0-9.8A4,4,0,1,0,31,5.2,4,4,0,0,0,27.5,3.2Z" fill="#505352"/></svg>